<svg width="384" height="438" viewBox="0 0 384 438" fill="none" xmlns="http://www.w3.org/2000/svg">
<path fill-rule="evenodd" clip-rule="evenodd" d="M1 95.5V397C5.13416 426.389 16.8487 435.532 42 437.5H342C368.141 436.08 379.459 427.107 383.5 397V95.5C379.927 71.323 374.084 60.6028 344 56H302V11.5C301.988 3.6807 300.387 0.740314 292 0.5H257.5L249 11.5V56H139V11.5C137.797 4.00801 136.415 0.643946 129 0.5H93.5C87.3027 1.63271 85.4585 3.68401 83.5 8.5V56H43C17.1607 58.3687 8.05457 67.1417 1 95.5ZM344 138H43L42.5 391L47.5 397H338L344 390V138Z" fill="black" stroke="black"/>
</svg>
