<svg width="143" height="106" viewBox="0 0 143 106" fill="none" xmlns="http://www.w3.org/2000/svg">
<path d="M30.5 6.50001L62 33.8859L91 22.7646L46 1.50001C38.8648 0.732233 35.6426 2.25828 30.5 6.50001Z" fill="#206DE1"/>
<path d="M66 99.5C63.1828 108.353 72.2745 106.27 80 97.5L98.4075 45.3453L70.231 56.3441L66 99.5Z" fill="#206DE1"/>
<path d="M139 26.5C144.62 17.8631 142.851 8.15531 129.5 8.00001L91 22.7646L62 33.8859L26.5 47.5C23.6517 48.2052 22.8837 48.0648 22 47.5L9.5 36.5C3.78947 35.9278 1.77688 36.8581 1.5 42L13 67C16.132 71.1465 18.6307 72.2371 25 71L70.231 56.3441L98.4075 45.3453L139 26.5Z" fill="#206DE1"/>
<path d="M26.5 47.5C23.6517 48.2052 22.8837 48.0648 22 47.5L9.5 36.5C3.78947 35.9278 1.77688 36.8581 1.5 42L13 67C16.132 71.1465 18.6307 72.2371 25 71L70.231 56.3441M26.5 47.5L91 22.7646M26.5 47.5L62 33.8859M80 97.5C72.2745 106.27 63.1828 108.353 66 99.5L70.231 56.3441M80 97.5C87.1886 77.1323 91.2189 65.713 98.4075 45.3453M80 97.5L98.4075 45.3453M62 33.8859L30.5 6.50001C35.6426 2.25828 38.8648 0.732233 46 1.50001L91 22.7646M62 33.8859L91 22.7646M91 22.7646L129.5 8.00001C142.851 8.15531 144.62 17.8631 139 26.5L98.4075 45.3453M70.231 56.3441L98.4075 45.3453" stroke="#206DE1" stroke-opacity="0.01"/>
</svg>
