<svg width="32" height="32" viewBox="0 0 32 32" fill="none" xmlns="http://www.w3.org/2000/svg">
<path fill-rule="evenodd" clip-rule="evenodd" d="M20.095 2.96002H21.949V4.42002H20.093L20.095 2.96002Z" fill="#5061AA"/>
<path fill-rule="evenodd" clip-rule="evenodd" d="M13.26 18.606H18.935V24.656H13.26V18.606Z" fill="#8B328A"/>
<path fill-rule="evenodd" clip-rule="evenodd" d="M16.992 25.95H20.722V28.21H16.992V25.95Z" fill="#5D80C0"/>
<path fill-rule="evenodd" clip-rule="evenodd" d="M14.78 27.006H19.263V31.444H14.781L14.78 27.006Z" fill="#E94E29"/>
<path fill-rule="evenodd" clip-rule="evenodd" d="M20.333 22.977H24.171V24.657H20.335L20.333 22.977Z" fill="#D5262A"/>
<path fill-rule="evenodd" clip-rule="evenodd" d="M18.93 19.918H22.865V20.913H18.93V19.918Z" fill="#F6A022"/>
<path fill-rule="evenodd" clip-rule="evenodd" d="M24.166 22.977H26.916V23.734H24.166V22.977Z" fill="#6A95CD"/>
<path fill-rule="evenodd" clip-rule="evenodd" d="M18.93 15.1H22.69V19.92H18.93V15.1Z" fill="#306FB6"/>
<path fill-rule="evenodd" clip-rule="evenodd" d="M11.586 11.404H18.936V18.607H11.586V11.404Z" fill="#73C8DD"/>
<path fill-rule="evenodd" clip-rule="evenodd" d="M7.31 11.406H12.218V15.39H7.31V11.406Z" fill="#92C143"/>
<path fill-rule="evenodd" clip-rule="evenodd" d="M13.678 4.65997H21.994V11.457H13.678V4.65997Z" fill="#5061AA"/>
<path fill-rule="evenodd" clip-rule="evenodd" d="M22.683 12.286H28.743V19.683H22.683V12.286Z" fill="#169BD6"/>
<path fill-rule="evenodd" clip-rule="evenodd" d="M21.73 16.496H26.917V22.996H21.729L21.73 16.496Z" fill="#F6A022"/>
<path fill-rule="evenodd" clip-rule="evenodd" d="M18.93 20.898H22.768V24.651H18.93V20.898Z" fill="#D5262A"/>
<path fill-rule="evenodd" clip-rule="evenodd" d="M16.687 23.255H21.639V25.975H16.685L16.687 23.255Z" fill="#199AA6"/>
<path fill-rule="evenodd" clip-rule="evenodd" d="M26.91 19.024H27.97V22.281H26.91V19.024Z" fill="#A5BFDF"/>
<path fill-rule="evenodd" clip-rule="evenodd" d="M28.74 12.057H31.513V13.771H28.741L28.74 12.057Z" fill="#3FB7AF"/>
<path fill-rule="evenodd" clip-rule="evenodd" d="M28.483 13.77H30.483V14.885H28.483V13.77Z" fill="#AE2258"/>
<path fill-rule="evenodd" clip-rule="evenodd" d="M18.93 8.51501H22.69V15.109H18.93V8.51501Z" fill="#79C199"/>
<path fill-rule="evenodd" clip-rule="evenodd" d="M22.683 5.85999H27.741V12.285H22.685L22.683 5.85999Z" fill="#E5DF1F"/>
<path fill-rule="evenodd" clip-rule="evenodd" d="M21.988 4.65997H25.675V10.684H21.988V4.65997Z" fill="#33BACF"/>
<path fill-rule="evenodd" clip-rule="evenodd" d="M26.97 10.517H32V12.287H26.97V10.517Z" fill="#6CA9DB"/>
<path fill-rule="evenodd" clip-rule="evenodd" d="M27.746 6.63702H30.148V10.519H27.746V6.63702Z" fill="#DE5097"/>
<path fill-rule="evenodd" clip-rule="evenodd" d="M29.427 7.85797H31.655V9.48597H29.427V7.85797Z" fill="#604596"/>
<path fill-rule="evenodd" clip-rule="evenodd" d="M28.855 9.487H32V11.114H28.855V9.487Z" fill="#FAD803"/>
<path d="M20.08 2.89001H21.97V4.42001H20.08V2.89001ZM13.678 2.93701H17.108V6.74001H13.678V2.93701Z" fill="#5061AA"/>
<path fill-rule="evenodd" clip-rule="evenodd" d="M3.08301 2.93701H13.693V11.457H3.08301V2.93701Z" fill="#0BB8E7"/>
<path fill-rule="evenodd" clip-rule="evenodd" d="M8.52502 0H12.217V4.805H8.52502V0Z" fill="#41AD4C"/>
<path fill-rule="evenodd" clip-rule="evenodd" d="M0.850006 10.73H7.7V13.4H0.850006V10.73Z" fill="#E7B720"/>
<path fill-rule="evenodd" clip-rule="evenodd" d="M17.1 0.435974H19.76V4.65997H17.1V0.435974Z" fill="#B9CF37"/>
<path fill-rule="evenodd" clip-rule="evenodd" d="M20.652 16.496H21.729V17.57H20.649L20.652 16.496Z" fill="#92C143"/>
</svg>
